<svg viewBox="0 0 398 489" focusable="false" class="chakra-icon css-ns0liu" xmlns="http://www.w3.org/2000/svg"><path d="M216.673 3.5134C215.08 5.56134 211.894 6.47156 209.618 5.78888C204.157 3.96851 181.402 9.8848 123.377 28.5439C97.6638 36.7357 61.0283 46.7479 42.1417 50.6162L7.3265 57.6703V66.3172C7.3265 73.8263 8.00915 74.9641 13.9255 76.3294C19.6142 77.4671 20.7519 79.06 23.0275 90.4375C24.3927 97.4915 25.5305 109.097 25.5305 116.151C25.5305 128.438 25.0754 129.576 17.3387 135.492C11.1948 140.271 9.602 143.002 10.0571 147.553C10.7397 152.786 13.6979 155.062 29.1713 162.798L47.8304 171.9L43.7345 179.865C41.6866 184.188 39.1835 191.47 38.2733 196.021C36.908 203.985 36.6805 204.212 22.5723 206.26C4.1408 208.991 3.45815 212.859 16.656 232.656C25.0754 244.944 26.6682 249.04 27.3509 260.872C28.2611 273.843 28.0336 274.981 23.0275 276.118C20.0693 277.028 13.6979 277.711 9.1469 277.711C1.8653 277.711 0.5 278.394 0.5 282.717C0.5 289.544 51.6987 394.899 72.1783 430.17C81.2803 445.871 91.9751 464.985 95.8435 472.721C99.7118 480.458 103.808 487.285 105.173 488.195C106.311 488.878 125.652 487.057 147.725 483.871C197.558 476.59 282.89 465.895 340.687 459.751C422.15 450.877 437.624 448.374 444.905 443.368C451.277 438.817 451.959 438.817 457.875 442.457C464.019 445.871 464.702 445.871 468.343 442.23C479.72 430.625 484.271 393.079 477.217 367.138C473.576 353.94 470.846 349.617 455.372 332.551C440.809 316.395 438.306 312.754 441.492 311.389C443.54 310.478 462.882 305.927 484.044 301.376C505.433 296.825 524.093 292.047 525.685 290.681C530.236 287.041 528.644 282.49 522.272 280.897C518.631 280.214 509.074 276.346 500.655 272.477C485.864 265.423 485.409 264.968 483.816 255.184C481.996 243.351 483.816 217.638 487.229 208.763C489.505 203.075 490.415 202.62 503.385 202.62C517.266 202.62 517.266 202.62 516.583 196.248C515.901 190.559 514.991 189.877 502.248 188.284C483.361 185.553 444.223 173.948 430.342 167.122L418.737 161.206L423.971 155.744C428.066 151.421 429.659 150.966 433.528 152.786C439.672 156.199 452.187 149.145 456.738 139.588C467.205 117.743 465.84 79.7426 454.007 62.9039C450.366 57.8978 444.223 51.754 440.354 49.4785C435.803 46.9754 411.455 41.2867 378.916 35.1429C349.334 29.6816 318.842 23.5378 311.333 21.9449C303.597 20.1245 284.482 16.0287 268.326 12.6154C252.398 9.42969 235.104 5.10623 230.098 3.28586C218.72 -0.58252 220.086 -0.58252 216.673 3.5134ZM315.657 27.1786C344.556 33.3224 381.874 40.8316 398.712 43.5622C415.551 46.2928 430.114 49.2509 431.025 49.9336C431.935 50.6162 431.252 53.1193 429.432 55.3948C426.701 59.2632 425.336 59.2632 398.485 53.5744C383.012 50.3887 357.071 44.2448 340.687 39.9214C324.531 35.5979 298.818 28.7715 283.8 24.9031C268.781 21.2623 248.074 16.0287 237.835 13.298C227.595 10.795 219.631 7.83685 220.086 6.6991C220.768 5.78888 230.781 7.38174 242.386 10.5674C253.763 13.5256 286.985 21.0347 315.657 27.1786ZM218.72 12.843C219.176 13.298 217.81 25.1306 215.762 39.2387C213.714 53.3468 212.122 67.91 212.349 71.7784L212.577 78.6049L214.397 70.6406C215.535 66.3172 217.81 51.5264 219.403 38.101L222.134 13.5256L229.188 15.1184C238.517 17.1664 243.979 20.1245 243.979 23.5378C243.979 25.1306 241.931 34.9153 239.655 45.6101C235.559 63.5866 235.332 68.5927 238.29 65.6346C238.972 64.9519 241.475 54.7121 243.523 43.1071C247.619 21.4898 250.122 17.849 257.404 22.6276C260.59 24.6755 260.135 31.2745 253.763 67.6825C253.081 72.006 253.536 75.1917 254.673 75.1917C256.039 75.1917 257.632 70.4131 258.314 64.2692C258.997 58.3529 260.817 46.7479 262.182 38.5561L264.913 23.5378L277.883 26.7235L290.854 29.9092L286.758 49.7061C282.434 70.8682 281.297 87.0242 284.71 78.6049C285.848 76.1018 288.123 64.4968 289.716 52.6642L292.674 31.502L299.501 32.8673C303.142 33.7775 306.555 34.6877 307.237 35.1429C307.693 35.8255 306.1 45.3826 303.369 56.5325C298.135 78.6049 297.453 85.4314 300.638 79.7426C301.776 77.9222 304.507 67.4549 306.555 56.305C308.83 45.3826 311.333 36.5081 312.243 36.5081C312.926 36.5081 318.615 38.101 324.531 40.1489C336.364 44.2448 336.364 44.2448 331.13 65.8621C330.22 69.5029 330.675 70.8682 332.268 69.7304C333.633 69.0478 335.454 62.6764 336.136 56.0775C337.729 44.4724 338.184 43.7897 342.735 45.6101C347.741 47.4305 347.969 49.0234 345.466 67.2274C344.328 74.7365 344.556 77.4671 345.921 75.1917C347.286 73.3712 348.879 66.3172 349.789 59.7182C350.927 51.0714 352.292 47.8857 354.34 48.7958C355.933 49.2509 366.4 51.5264 377.323 53.8019C388.473 55.8499 398.485 58.3529 399.395 59.2632C400.533 60.1733 396.892 62.4489 391.203 64.4968C381.191 67.91 380.964 67.91 381.874 62.9039L383.012 58.1254L380.736 62.9039C377.55 70.4131 373.682 71.7784 373.454 65.6346C373.227 60.4009 373.227 60.4009 371.634 66.0896C370.269 70.8682 362.987 74.9641 325.897 91.5752C301.549 102.498 273.788 114.103 264.458 117.516C255.128 120.929 239.2 127.073 229.188 131.396C216.9 136.858 209.163 138.906 204.84 137.995C201.427 137.313 179.809 127.983 157.054 117.061C134.299 106.366 99.0292 91.8028 78.7772 84.9763L42.1417 72.6886L44.8722 63.1315C46.9202 56.305 48.9682 53.3468 52.3814 52.8918C56.7048 52.2091 56.9324 52.6642 54.8844 60.4009C51.4712 72.2335 53.9743 72.9161 57.6151 61.3111C60.1181 53.8019 62.166 51.2989 67.1721 49.9336C73.0884 48.3407 73.5435 48.5683 72.6333 53.1193C69.4476 66.3172 68.5375 76.3294 70.813 72.9161C71.9507 71.0957 73.7711 64.9519 74.4538 59.0356C75.364 52.4366 77.4119 47.6581 79.4598 46.9754C81.5078 46.0652 83.5557 45.8377 84.0108 46.2928C84.466 46.7479 83.1006 54.0295 81.2803 62.6764C79.2323 71.0957 78.0946 79.06 78.5497 80.6528C79.0048 82.0181 81.2803 74.7365 83.5557 64.2692C86.5139 50.6162 89.017 44.7 91.9751 43.1071C94.4781 41.7418 96.7536 41.0591 97.2087 41.5143C97.6638 41.9693 97.2087 49.4785 96.071 58.1254C94.9333 66.9998 94.023 76.5569 94.023 79.7426C94.2506 90.8926 97.8914 77.2396 99.9393 58.3529L101.76 40.3765L114.047 36.053C120.874 33.7775 126.79 32.4122 127.245 32.6398C127.7 33.0949 125.425 45.155 122.239 59.2632C117.461 81.3355 116.55 90.2099 119.509 86.3416C119.964 85.8865 122.922 73.1437 125.88 58.1254L131.569 30.8194L142.946 26.951C156.144 22.6276 158.192 22.1725 156.599 24.6755C154.551 28.0888 146.132 69.0478 147.27 70.1855C148.635 71.7784 149.773 67.91 154.096 46.7479C156.144 36.7357 158.42 26.951 158.875 24.9031C159.785 21.7174 175.486 14.8909 177.306 16.9388C178.217 17.849 171.618 61.9937 169.57 69.5029C168.659 72.6886 169.115 73.3712 170.935 71.7784C172.3 70.4131 175.258 57.2152 177.306 42.1969L181.63 15.1184L191.642 12.3878C200.289 10.1123 215.762 10.3399 218.72 12.843ZM446.043 59.2632C455.828 69.0478 459.013 79.9702 459.013 103.635C458.786 125.48 454.917 137.313 444.45 146.642C440.354 150.283 438.761 150.511 433.755 148.463C428.749 145.96 427.384 146.415 422.605 151.648C419.192 155.289 403.491 163.481 383.467 171.9C338.639 191.015 294.039 211.494 249.212 234.249C228.05 244.716 212.122 251.543 212.122 249.95C212.122 248.357 221.223 242.668 232.146 237.435C243.068 232.201 275.608 215.59 304.507 200.799C333.633 185.781 370.951 168.26 387.563 161.661C404.401 155.062 420.102 148.69 422.605 147.097C425.108 145.732 431.252 144.594 436.258 144.594C445.133 144.594 445.36 144.367 450.366 132.079C454.235 122.522 455.372 115.013 455.6 99.5395C455.6 78.6049 453.324 70.8682 444.223 62.6764C440.354 59.0356 438.761 58.808 435.121 61.0835C428.522 65.1794 427.839 64.4968 431.935 58.1254C436.713 50.8438 437.851 51.0714 446.043 59.2632ZM42.5967 60.856C40.5488 69.5029 38.2733 71.3233 32.357 69.5029C26.8958 67.6825 26.6682 59.2632 32.1294 57.4427C34.4049 56.7601 34.8601 57.6703 33.9498 61.7662C32.5845 66.9998 32.8121 66.9998 35.7702 62.9039C37.5906 60.4009 39.1835 57.6703 39.1835 56.5325C39.1835 55.6223 40.3213 54.7121 41.6866 54.7121C43.2794 54.7121 43.7345 56.9876 42.5967 60.856ZM410.09 65.8621C403.263 68.1376 379.598 78.3773 357.526 88.3895C335.454 98.6293 308.148 110.689 297.225 115.24C286.075 119.791 263.093 129.349 246.026 136.858C214.169 150.511 207.57 152.331 207.57 147.325C207.57 145.96 227.822 136.63 253.763 126.618C279.021 116.606 313.154 102.498 329.31 94.9885C369.131 76.5569 407.359 61.7662 415.779 61.7662C421.24 61.7662 420.102 62.6764 410.09 65.8621ZM444.905 67.91C451.504 75.1917 454.462 96.1263 451.277 113.192C449.684 121.612 446.953 131.169 445.133 135.037C441.947 140.726 440.582 141.409 434.893 140.271C430.797 139.588 426.018 140.271 423.06 142.091C420.33 143.912 405.084 150.511 389.155 156.882C363.442 167.122 293.357 201.482 237.152 231.063C226.685 236.752 216.217 241.303 214.169 241.303C209.163 241.303 149.318 212.177 104.035 187.601C84.0108 176.679 56.2497 161.888 42.1417 154.607C20.7519 143.684 17.1112 141.181 20.0693 138.678C22.7999 136.403 23.9377 136.63 26.2132 139.588C27.806 141.409 36.2253 146.87 44.8722 151.648C53.7467 156.199 68.0824 164.391 76.7292 169.852C94.7057 180.775 167.522 212.632 199.834 223.554L221.223 230.836L300.411 191.697C343.873 170.308 385.97 150.056 394.161 146.642C402.353 143.457 414.641 137.768 421.923 134.127C438.534 125.708 440.809 119.564 438.989 87.2518C438.306 74.2814 438.534 63.8141 439.444 63.8141C440.354 63.8141 442.857 65.6346 444.905 67.91ZM81.2803 91.1201C98.8016 97.0364 132.024 110.689 155.234 121.157C178.444 131.852 199.379 141.181 201.882 142.091C204.84 143.457 205.523 144.367 203.475 145.049C201.882 145.732 195.283 144.139 188.684 141.409C146.132 124.798 128.611 117.516 108.131 108.186C95.3884 102.27 68.765 91.8028 48.9682 84.5212C29.3988 77.2396 12.7877 70.1855 12.3326 68.8203C11.8775 67.2274 19.6142 69.0478 30.5366 73.1437C40.7763 77.012 63.7589 84.9763 81.2803 91.1201ZM432.845 69.958C432.845 71.0957 433.528 74.0539 434.21 76.5569C435.348 80.8804 433.983 82.0181 423.288 85.4314C412.366 89.0722 331.13 121.384 309.058 130.941C304.279 132.989 300.866 135.037 301.549 135.72C302.004 136.403 315.657 131.624 331.813 125.025C347.969 118.654 377.778 106.821 398.257 99.0844L435.121 84.7487V96.5813V108.414L410.773 120.247C382.101 134.127 384.377 136.403 413.503 122.977C424.426 117.743 433.755 113.875 433.983 114.33C434.21 114.785 433.755 117.288 432.617 120.019C430.569 125.48 419.42 131.852 389.155 144.367C378.233 148.918 338.184 168.032 300.411 187.146C262.41 206.26 230.781 222.189 229.87 222.644C228.733 223.099 228.05 219.003 228.05 213.542V203.53L254.218 192.607C268.554 186.464 280.387 180.547 280.387 179.637C280.387 177.589 266.961 182.368 243.296 193.063L228.505 199.889L229.643 190.332C230.326 185.326 231.463 180.32 232.373 179.637C233.511 178.272 271.74 162.116 306.555 148.235C312.926 145.732 316.112 143.684 313.836 143.684C311.561 143.457 292.447 150.511 271.284 159.158C249.895 167.804 232.146 174.176 231.691 173.266C231.008 172.355 229.87 166.667 229.188 160.295L227.595 149.145L243.296 142.546C251.715 138.906 275.153 129.121 295.177 120.702C315.202 112.282 350.017 97.0364 372.544 86.7967C402.808 73.1437 416.006 68.3651 423.288 68.3651C428.522 68.3651 432.845 69.0478 432.845 69.958ZM68.765 96.3538C76.9568 99.312 98.5741 108.641 116.778 116.833C134.982 125.253 159.102 135.265 170.252 139.133C181.402 143.002 195.055 148.463 200.744 151.421C208.708 155.517 212.122 155.972 216.217 154.151C218.948 152.786 221.906 152.559 222.589 153.241C223.499 154.151 224.637 164.391 225.319 176.451C226.23 194.2 225.775 198.296 223.044 199.206C221.223 199.889 208.936 196.476 195.965 191.697C182.995 186.919 169.342 182.14 165.474 181.23C161.833 180.32 156.827 179.182 154.779 178.499C152.503 177.817 150.683 178.272 150.683 179.41C150.683 180.775 153.414 182.368 157.054 183.05C160.468 183.961 176.851 189.422 193.462 195.11C223.271 205.578 223.499 205.578 223.499 212.632C223.499 226.057 221.906 226.285 193.69 216.5C154.551 202.847 96.7536 177.589 72.8609 163.481C61.2559 156.427 47.1478 148.463 41.459 145.505C32.1294 140.498 31.2192 139.133 30.5366 130.259C30.0815 125.025 30.5366 120.702 31.2192 120.702C31.9019 120.702 36.2253 122.522 41.0039 125.025C51.0161 130.031 80.5976 139.133 82.1905 137.768C84.0108 135.72 80.5976 134.127 67.6273 130.714C60.5732 128.893 49.1957 124.798 42.3692 121.839C30.7642 116.833 30.0815 115.923 30.0815 108.186V99.9946L36.4529 103.408C45.5549 108.186 84.2384 118.881 87.6516 117.743C90.8373 116.606 92.8853 117.288 56.9324 106.138C42.3692 101.587 29.854 97.0364 29.3988 96.1263C28.7162 95.216 27.5784 91.1201 26.6682 87.2518L25.0754 79.7426L39.6386 85.2038C47.6029 88.162 60.5732 93.1681 68.765 96.3538ZM47.1478 161.433C63.5313 170.08 92.2027 185.326 110.862 195.566C129.748 205.805 159.102 221.051 176.396 229.243C203.702 242.668 212.349 248.13 205.523 248.13C203.702 248.13 144.539 218.321 101.76 195.793C90.6098 189.877 66.4895 177.362 48.5131 168.032C30.309 158.702 15.0632 149.828 14.6081 148.463C13.2428 143.912 16.4285 145.277 47.1478 161.433ZM435.121 174.176C446.27 179.865 477.9 189.194 492.691 191.015L506.799 192.607L493.146 195.566C464.247 201.709 368.676 226.057 336.136 235.614C287.213 249.722 235.332 268.609 228.96 274.07C224.864 277.484 222.589 282.945 220.996 293.185C218.72 305.7 219.176 310.251 223.499 329.593C226.23 341.653 229.188 353.03 229.87 354.623C230.781 357.354 205.978 340.97 167.749 313.892C160.24 308.658 138.623 293.867 119.736 281.124C86.5139 258.824 69.2201 245.399 49.8783 226.967L40.7763 218.548L42.3692 203.757C43.2794 195.566 45.5549 185.326 47.6029 181.002L51.4712 173.038L63.9865 180.092C80.8251 189.422 80.37 188.967 76.7292 199.206C74.9089 204.212 73.5435 215.362 73.316 224.237C73.316 239.483 73.5435 240.393 81.7354 248.585C91.52 258.597 93.7955 259.28 92.2027 251.998C91.52 249.267 91.7476 247.675 92.6578 248.812C93.7955 249.722 94.7057 252.681 94.9333 255.411C95.1608 258.142 97.2087 261.555 99.7118 263.148C103.808 265.879 104.035 265.196 104.49 247.447C104.718 237.207 106.538 224.237 108.359 218.776C111.772 209.446 111.772 208.536 108.131 205.805C101.987 201.254 107.676 202.392 115.413 207.171C131.114 216.955 150.455 227.195 162.516 232.201L175.258 237.435L170.025 245.627C161.605 258.597 159.102 270.657 160.923 288.178C162.516 302.969 162.971 304.334 172.755 313.436C183.678 323.676 188.684 325.952 185.953 319.125C180.72 305.927 184.36 278.394 193.917 259.507L198.696 250.405L205.295 253.818C211.666 257.004 212.804 257.004 220.996 252.681C227.595 249.495 230.326 249.04 231.008 251.088C231.691 252.681 232.373 251.998 232.373 249.722C232.601 247.447 233.966 245.854 235.559 246.537C236.924 246.992 244.889 244.034 253.081 239.938C261.272 236.069 270.147 232.201 272.422 231.746C274.925 231.518 278.111 229.471 279.704 227.65C282.207 224.692 282.434 224.692 282.662 227.65C282.662 230.381 283.572 229.926 286.075 226.74C288.351 223.782 289.488 223.327 289.488 225.375C289.488 227.423 290.626 226.967 292.902 224.009C294.722 221.734 296.315 220.596 296.315 221.961C296.315 223.099 297.453 222.644 298.591 220.824C300.411 218.093 301.321 217.865 302.914 220.369C304.279 222.644 305.189 222.189 306.1 218.548C306.782 215.59 308.375 214.225 309.968 215.135C311.561 216.045 315.657 213.997 319.525 210.356L326.352 203.757L324.759 209.446L323.166 215.135L327.489 209.446C331.13 204.44 334.088 203.075 343.645 202.165C345.011 201.937 346.376 201.027 346.376 199.889C346.376 198.979 347.969 198.069 349.789 198.069C351.61 198.069 353.203 197.158 353.203 196.021C353.203 193.063 364.58 191.47 364.808 194.428C364.808 195.793 365.718 194.883 366.855 192.38C368.221 189.194 368.903 188.967 369.131 191.242C369.131 193.973 369.814 193.745 371.634 190.559C372.772 188.512 375.502 186.691 377.095 186.691C378.916 186.691 380.509 185.781 380.509 184.643C380.509 183.505 382.329 183.05 384.604 183.505C386.652 183.961 395.754 181.457 404.401 177.817C423.288 170.08 426.474 169.625 435.121 174.176ZM100.394 197.841C102.67 199.434 102.897 200.799 100.85 204.668C97.4363 210.811 93.1128 211.039 94.9333 204.895C95.8435 202.392 95.3884 200.344 94.023 200.344C92.6578 200.344 91.52 199.206 91.52 198.069C91.52 195.338 96.071 195.11 100.394 197.841ZM480.63 206.943C480.63 208.081 479.038 210.129 477.217 211.722C475.397 213.314 473.804 215.59 473.804 216.728C473.804 218.093 475.397 217.865 477.217 216.273C481.086 213.087 481.541 215.59 478.583 223.782C476.762 228.333 473.804 229.698 462.654 231.974C455.145 233.566 448.318 235.614 447.636 236.752C445.815 239.938 450.139 239.483 464.702 235.614C471.529 233.794 477.445 232.201 477.9 232.201C478.355 232.201 478.355 236.98 477.9 242.896L477.217 253.818L447.636 262.693C431.48 267.699 417.599 272.022 417.144 272.477C410.545 277.256 453.552 267.471 470.163 260.645C474.942 258.597 479.038 257.232 479.493 257.687C479.948 258.142 480.63 261.783 481.086 266.106C481.541 272.705 480.858 274.07 476.079 275.663C472.894 276.573 447.863 283.627 420.33 291.364C392.796 299.101 343.19 313.664 310.196 323.449C277.201 333.461 249.895 341.198 249.44 340.742C248.074 339.377 248.074 292.274 249.667 288.634C250.577 286.586 253.763 283.172 256.721 281.124C259.679 279.304 262.182 276.118 262.182 274.525C262.182 272.022 266.733 268.609 270.147 268.609C271.967 268.609 269.692 275.663 267.644 275.663C264.686 275.663 255.356 284.765 255.356 287.496C255.356 288.861 257.176 288.178 259.452 286.13C261.727 283.855 264.23 282.717 264.913 283.627C265.596 284.31 268.326 281.807 271.057 278.166C273.56 274.525 275.153 270.885 274.47 270.202C273.788 269.519 276.291 267.244 280.159 265.196C288.806 260.872 289.033 262.01 281.297 272.25C272.65 283.627 276.518 281.807 289.488 268.154C295.632 261.783 301.549 257.232 302.459 258.142C303.369 259.052 301.094 262.238 297.453 265.196C291.536 269.747 291.309 270.43 295.632 269.292C298.363 268.609 301.094 266.561 302.004 264.513C303.142 261.555 303.824 261.328 305.189 263.831C306.782 266.334 307.92 265.651 310.196 261.555C312.699 256.549 312.699 256.321 309.285 259.28C307.01 260.872 305.417 261.328 305.417 260.19C305.417 259.052 309.058 256.321 313.381 254.273C322.256 250.178 323.849 251.998 316.794 258.369C314.291 260.645 312.699 262.92 313.381 263.603C314.064 264.286 318.615 260.417 323.621 254.956C328.627 249.495 333.406 245.854 334.316 246.537C334.999 247.447 334.088 249.95 332.04 252.226C329.765 254.501 328.172 257.459 328.172 258.597C328.172 259.735 330.22 258.142 332.723 254.956C335.226 251.77 337.274 250.633 337.274 252.226C337.274 253.818 338.412 254.501 339.549 253.818C340.915 253.136 341.825 251.315 341.825 250.178C341.825 248.812 340.915 248.585 339.549 249.267C338.412 249.95 337.274 249.495 337.274 248.357C337.274 246.992 338.184 245.854 339.322 245.854C340.46 245.854 343.19 245.171 345.466 244.261C347.741 243.351 348.879 243.806 347.969 244.944C347.286 246.309 347.514 248.585 348.879 250.405C350.472 253.363 350.927 253.136 350.927 250.178C350.927 248.13 352.747 244.944 354.795 243.351C357.981 240.62 358.436 240.62 356.843 243.579C355.933 245.399 357.298 244.489 360.029 241.303C364.808 235.842 365.035 236.297 360.939 247.447C360.029 249.722 361.849 247.902 364.808 243.579C370.724 235.387 381.191 231.746 378.916 238.8C378.461 240.848 380.053 239.71 382.784 236.069C385.515 232.656 389.155 229.926 390.976 229.926C394.844 229.926 395.072 232.656 391.431 236.297C390.066 237.662 389.383 239.71 390.293 240.393C390.976 241.303 393.479 238.8 395.754 234.704C400.078 227.195 405.084 224.692 400.988 232.201C399.623 234.704 399.395 236.752 400.305 236.752C401.443 236.752 403.263 234.477 404.401 231.746C405.767 229.015 408.042 226.285 409.635 225.83C412.138 225.147 412.366 225.83 410.318 229.698C406.222 237.435 410.773 235.159 415.324 227.423C418.282 222.189 420.557 220.596 423.743 221.506C426.246 222.189 428.294 221.734 428.294 220.369C428.294 219.003 429.659 218.548 431.48 219.231C433.073 219.913 435.803 219.231 437.168 217.865C438.534 216.5 439.672 216.273 439.672 217.638C439.672 218.776 438.534 221.051 436.941 222.644C435.348 224.237 435.121 225.375 436.486 225.375C437.851 225.375 440.354 222.872 441.947 219.686C443.54 216.5 445.815 213.997 446.953 213.997C449.684 213.997 449.229 217.183 446.043 220.369C444.45 221.961 444.223 223.099 445.588 223.099C446.953 223.099 449.456 220.596 451.049 217.41C452.642 214.225 455.6 211.494 457.648 211.267C464.93 210.584 465.84 210.356 470.391 207.626C475.852 204.44 480.63 204.212 480.63 206.943ZM37.8182 217.41C38.956 223.099 42.3692 227.65 49.8783 233.794C55.7947 238.573 64.6691 246.082 69.6752 250.633C80.37 260.19 121.102 288.861 167.749 319.808C196.648 338.922 227.367 360.312 234.194 366.228C235.787 367.821 240.793 367.821 248.985 366.228C255.584 364.863 265.141 363.27 270.147 362.587C275.153 361.905 281.069 359.857 283.345 357.809C287.213 354.395 287.213 354.623 285.848 358.719C284.255 362.587 284.71 362.587 289.944 357.809C292.902 355.078 296.77 352.803 298.591 352.803C300.638 352.803 300.183 353.94 297.225 356.216C294.95 358.036 293.812 359.629 294.722 359.629C295.86 359.629 299.956 357.126 304.052 353.94C312.471 347.569 316.567 346.431 312.243 351.665C307.465 357.354 311.561 355.533 320.208 348.024C324.759 343.928 328.855 341.425 329.765 342.108C330.448 343.018 332.951 342.563 335.226 341.198C341.142 338.239 340.687 340.97 334.543 346.431C328.172 351.892 333.633 349.162 343.19 342.108C351.155 336.191 355.25 335.281 350.927 340.287C349.334 342.108 354.113 340.06 361.394 335.736C376.413 326.634 380.964 325.497 374.592 332.551C370.269 337.557 370.269 337.557 375.73 334.371C388.473 326.862 390.748 325.724 391.658 326.634C392.114 327.317 389.838 329.82 386.425 332.551C383.012 335.281 380.736 337.784 381.419 338.467C382.101 339.15 387.107 335.736 392.796 330.958C403.263 322.083 417.372 318.443 420.557 323.449C421.467 324.814 424.198 323.676 427.611 320.491L433.3 315.257L448.091 331.185C461.971 346.204 462.427 347.114 456.965 347.797C454.007 348.252 450.139 350.072 448.546 351.892C446.27 354.851 445.36 354.623 441.492 351.21C437.624 347.569 433.983 348.024 377.55 355.761C344.783 360.312 296.543 366.228 270.147 368.731C222.134 373.51 153.186 381.474 140.443 383.749C133.844 384.887 132.934 383.977 120.191 364.18C112.91 352.803 101.987 338.239 96.2986 331.64C90.3822 325.042 82.8731 315.257 79.6874 309.568C76.7292 303.879 64.6691 284.538 53.2916 266.334C41.6866 248.13 31.9019 232.201 31.4468 231.063C30.9917 229.698 29.854 229.471 28.9438 230.381C28.0336 231.291 37.1356 247.675 48.9682 266.789C60.8008 285.903 73.7711 307.065 77.867 313.892C81.7354 320.718 89.9271 331.868 95.8435 338.922C109.724 355.078 130.659 386.48 129.748 389.438C129.293 390.803 123.149 382.612 115.868 371.462C108.814 360.312 99.0292 346.659 94.2506 341.198C74.6813 318.67 56.9324 293.412 43.507 268.609C35.5427 254.273 25.0754 236.98 20.5244 230.153C10.2846 215.362 9.82955 212.404 18.2489 211.039C34.8601 208.536 36.2253 208.991 37.8182 217.41ZM85.6037 222.189C88.1068 228.56 87.1965 231.291 82.418 231.518C79.9149 231.746 77.867 230.608 77.867 228.788C77.867 226.74 79.2323 226.057 81.2803 226.74C83.1006 227.65 84.6935 226.967 84.6935 225.602C84.6935 224.237 83.7833 223.099 82.418 223.099C81.2803 223.099 80.1425 221.961 80.1425 220.824C80.1425 217.183 84.0108 218.093 85.6037 222.189ZM416.689 219.458C416.234 219.913 399.85 224.692 380.509 229.926C342.053 240.393 268.781 264.741 248.074 273.843C241.02 277.028 233.966 281.807 232.601 284.765C226.685 295.46 234.876 346.886 243.751 355.761C247.619 359.629 247.847 359.629 253.536 355.078C256.721 352.575 260.817 350.527 262.41 350.527C264.003 350.527 283.8 344.838 306.327 337.784C348.651 324.586 455.372 296.143 489.505 288.861C502.248 286.13 511.577 285.448 516.811 286.586L525.003 288.178L515.901 289.999C504.751 292.047 407.815 314.119 370.269 323.449C355.25 327.089 321.118 337.329 294.495 345.976C267.644 354.851 243.751 361.905 241.02 361.45C233.739 360.539 226.23 331.185 226.002 303.424C225.775 283.4 226.002 282.49 232.146 277.256C239.883 270.657 311.333 246.537 370.269 230.153C408.042 219.686 419.192 217.183 416.689 219.458ZM98.3465 228.788C98.3465 230.608 99.2567 232.201 100.622 232.201C101.76 232.201 102.215 233.794 101.532 235.614C100.622 237.435 99.2567 239.028 98.1189 239.028C97.2087 239.028 96.7536 237.435 97.4363 235.614C98.3465 233.794 97.6638 232.201 96.2986 232.201C94.9333 232.201 93.7955 230.608 93.7955 228.788C93.7955 226.967 94.9333 225.375 96.071 225.375C97.4363 225.375 98.3465 226.967 98.3465 228.788ZM189.367 245.627C195.055 249.04 195.738 250.178 193.235 252.453C191.414 253.818 188.229 254.501 186.181 253.591C183.45 252.453 182.54 253.591 182.54 257.459C182.54 261.783 182.995 262.238 184.816 259.507C185.953 257.687 187.546 257.004 188.456 257.914C189.367 258.824 188.911 260.872 187.546 262.238C185.953 263.831 184.816 267.016 184.816 269.519C184.816 273.615 184.36 273.615 182.54 270.885C181.175 269.064 180.492 263.603 180.72 259.052C180.947 254.273 180.037 249.267 178.444 247.675C171.39 240.62 178.672 239.028 189.367 245.627ZM175.258 276.573C175.258 285.22 175.031 285.448 173.438 278.849C172.528 274.981 171.618 266.789 171.618 260.645V249.267L173.666 258.369C174.576 263.375 175.486 271.567 175.258 276.573ZM65.1242 311.844C72.4058 321.628 83.7833 336.191 90.6098 343.928C97.2087 351.665 106.993 364.863 111.999 373.282C117.006 381.474 124.287 391.259 127.928 394.899C131.796 398.54 134.755 403.091 134.755 405.367C134.755 411.283 114.047 450.877 111.772 449.284C110.634 448.601 109.724 447.008 109.724 445.871C109.724 444.505 103.808 435.176 96.5261 424.936C79.2323 401.043 59.663 363.725 61.0283 358.036C61.7109 355.533 55.3396 337.784 46.2375 317.077C31.4468 283.627 30.309 279.532 31.4468 269.974L33.0396 259.28L42.3692 276.573C47.6029 286.13 57.8426 301.831 65.1242 311.844ZM505.661 279.987C505.661 280.897 501.338 282.262 496.104 282.945C483.134 284.765 347.741 320.718 304.279 333.916C285.62 339.605 266.733 345.066 262.638 345.976C258.314 347.114 253.081 349.617 250.577 351.665C246.709 355.533 246.254 355.533 244.889 351.892C243.979 349.844 243.751 347.797 244.206 347.341C244.661 346.886 254.446 343.928 265.596 340.742C276.973 337.557 304.962 329.365 328.172 322.538C351.382 315.484 394.844 303.197 424.881 294.777C454.917 286.358 481.313 279.076 483.589 278.621C485.637 277.939 487.457 276.118 487.457 274.298C487.457 271.795 489.05 272.022 496.559 274.753C501.565 276.801 505.661 279.076 505.661 279.987ZM25.0754 294.095C28.9438 311.161 77.4119 407.642 91.52 426.756C98.1189 435.403 104.718 446.098 106.538 450.194L109.952 457.931L124.06 456.338C131.796 455.655 146.36 453.607 156.372 451.787C202.564 443.595 265.596 434.721 276.291 434.721C290.171 434.721 389.383 424.708 421.467 419.93C447.181 416.289 451.504 418.109 439.672 427.894C430.342 435.631 429.204 435.858 385.742 440.409C367.311 442.457 336.819 446.098 317.932 448.374C299.273 450.877 271.967 453.835 257.632 455.428C243.296 456.793 219.631 459.296 205.295 461.116C176.169 464.757 129.066 470.446 116.095 472.039L107.676 472.949L93.5679 449.056C86.0588 435.858 66.9446 399.905 51.2436 369.186C35.5427 338.239 19.8417 308.43 16.4285 302.742C13.0153 297.053 9.37445 290.226 8.46425 287.268C7.09895 282.717 7.7816 282.262 14.6081 282.262C21.8897 282.262 22.3448 282.717 25.0754 294.095ZM44.8722 322.994C53.064 342.335 59.4355 358.491 58.9804 358.946C57.16 360.767 27.806 294.55 27.806 288.634C27.806 283.855 29.6264 287.723 44.8722 322.994ZM240.793 303.424C238.062 307.293 237.607 311.616 238.517 319.353C239.428 325.269 240.565 330.048 241.475 330.048C242.158 330.048 243.068 332.778 243.068 335.964C243.296 339.15 242.841 341.198 242.158 340.287C239.428 337.784 234.876 321.856 234.876 315.029C234.876 307.52 241.931 290.909 243.296 295.232C243.979 296.825 242.613 300.466 240.793 303.424ZM441.947 355.533C445.36 357.581 447.408 357.581 451.732 355.306C466.522 347.341 474.942 361.45 474.942 393.762C474.942 417.427 473.121 429.032 468.115 435.403C465.385 439.272 464.019 439.272 457.193 436.769C450.366 434.266 448.773 434.493 442.857 438.817C437.168 442.912 426.246 444.96 367.993 451.559C330.448 456.11 281.752 461.799 259.907 464.302C220.086 469.081 127.7 481.823 116.095 484.099C111.317 485.009 109.724 484.554 109.724 481.823C109.724 477.955 114.503 476.59 138.168 474.542C147.042 473.632 166.839 471.129 182.54 468.853C198.241 466.578 219.176 464.075 229.188 463.392C239.2 462.482 271.512 458.841 300.866 455.2C330.22 451.787 361.622 448.146 370.269 447.236C408.952 443.595 431.707 439.272 439.444 433.583C446.726 428.577 447.863 428.349 454.69 431.307C460.379 433.583 462.654 433.81 464.474 431.762C472.439 421.978 473.804 374.875 466.295 363.27C462.882 358.036 461.744 357.809 456.738 360.084C452.414 362.132 449.001 361.905 441.947 359.629C436.258 357.809 428.749 357.126 421.012 358.264C379.826 363.27 345.466 366.456 343.418 365.773C341.825 365.318 351.382 363.497 364.58 361.905C377.778 360.312 396.209 357.809 405.539 356.216C428.294 352.348 436.486 352.348 441.947 355.533ZM435.121 361.45C435.121 362.36 431.025 367.138 426.018 372.144C421.012 376.923 417.599 381.474 418.282 382.157C418.964 382.839 423.743 378.516 428.977 372.599C436.258 364.408 439.216 362.36 441.947 363.953C444.678 366.001 443.995 367.593 437.851 373.965C429.204 383.067 428.066 387.845 436.486 379.881L442.63 374.42L438.534 381.246L434.665 388.073L440.354 381.474C443.312 378.061 445.815 373.51 445.588 371.462C445.588 369.414 447.181 367.366 449.456 366.911C453.324 366.228 453.324 366.683 449.001 374.875C446.27 379.654 441.492 386.935 438.306 390.803C434.893 394.899 433.3 398.313 434.665 398.313C436.258 398.313 436.713 400.133 435.803 402.181C434.438 405.822 435.121 405.594 439.672 401.726L444.905 397.175L443.312 404.001C442.402 407.642 440.582 411.511 439.216 412.193C437.851 413.103 426.929 414.924 414.869 416.289C353.43 423.343 308.603 427.667 286.075 429.032C264.458 430.17 217.81 436.769 140.671 449.511C129.521 451.332 119.736 452.47 119.281 451.787C118.826 451.332 120.646 447.008 123.377 442.23L128.156 433.355L160.013 429.032C177.306 426.756 191.642 424.026 191.642 422.888C191.642 420.157 179.809 420.613 155.234 424.481C143.401 426.301 133.389 427.439 133.162 426.984C132.707 426.756 133.617 423.116 134.982 419.247C137.258 412.876 138.395 411.966 145.904 411.966C154.551 411.966 158.647 409.69 164.336 401.726C166.839 398.313 165.929 398.54 161.15 402.864C155.462 407.642 154.779 407.87 156.144 404.229C157.51 399.905 157.51 399.905 153.414 403.546C149.09 407.642 139.305 408.78 139.305 405.367C139.305 403.091 147.042 400.133 154.096 399.678C156.599 399.45 160.24 398.313 162.061 397.175C163.881 396.037 167.294 394.672 169.797 394.444C173.893 393.762 173.893 393.989 170.025 399.905C166.384 405.594 166.839 405.594 174.348 398.54C182.085 391.031 185.953 391.031 179.582 398.313C178.217 400.133 179.582 399.223 182.995 396.265C186.181 393.307 190.049 391.714 191.414 392.396C192.552 393.307 194.145 392.851 195.055 391.486C195.738 390.348 197.558 389.211 198.924 389.211C200.289 389.211 199.151 391.714 196.193 394.899C193.235 398.085 191.642 400.588 192.552 400.588C193.462 400.588 196.876 397.402 200.061 393.762C203.247 389.893 207.115 387.163 208.481 387.618C209.846 388.073 213.032 387.618 215.535 386.252C218.265 384.887 217.128 387.163 212.349 392.396C201.654 403.546 205.75 402.864 218.038 391.486C223.499 386.48 230.326 382.384 233.056 382.384C236.014 382.384 242.386 381.701 247.392 380.791L256.494 379.426L247.847 386.935C243.068 391.031 239.883 394.899 240.338 395.582C241.02 396.265 246.254 392.396 251.943 387.163C262.865 377.15 265.823 375.785 263.548 381.701C262.182 385.115 262.41 385.342 266.051 381.929C268.326 379.881 272.65 377.606 275.608 376.695C281.297 374.875 280.842 377.15 274.015 385.342C272.195 387.39 271.057 389.666 271.74 390.348C272.422 391.031 275.836 387.845 279.249 383.522C283.345 377.833 286.985 375.558 290.171 376.013C292.902 376.24 296.543 375.785 298.135 374.875C302.914 371.689 301.094 376.923 295.177 382.384C291.992 385.342 289.488 388.756 289.488 390.121C289.488 391.486 293.584 388.3 298.591 382.839C303.369 377.606 308.83 373.282 310.423 373.282C311.788 373.282 309.968 376.695 305.872 380.791C301.776 384.887 298.591 389.211 298.591 390.348C298.591 391.714 302.686 388.073 307.237 382.612C314.519 374.192 317.477 372.599 326.124 371.689L336.136 370.779L327.717 379.426C315.202 392.169 317.25 394.444 329.992 381.929L340.687 371.234L365.718 368.731C379.598 367.138 391.886 365.318 393.024 364.635C394.389 363.953 391.203 367.821 386.197 373.055C381.419 378.061 378.233 382.384 379.598 382.384C380.736 382.384 385.742 378.288 390.748 373.282C401.671 361.905 404.629 363.497 393.934 375.103C387.107 382.384 387.563 382.384 396.437 373.737C409.635 361.677 413.958 361.222 402.126 373.282C397.347 378.288 394.389 382.384 395.754 382.384C397.12 382.384 402.126 378.061 406.677 372.827C414.641 364.18 418.964 362.132 433.528 359.857C434.438 359.857 435.121 360.539 435.121 361.45ZM62.6212 399.45C71.0405 415.606 76.0466 426.984 74.2262 424.481C69.9027 419.02 42.3692 364.408 45.5549 367.593C46.6926 368.731 54.4294 383.067 62.6212 399.45ZM466.75 377.15C466.978 378.743 465.385 380.109 463.564 380.109C460.151 380.109 458.786 371.007 461.744 367.821C463.337 366.228 466.522 371.917 466.75 377.15ZM262.182 374.875C258.997 375.33 231.918 379.881 201.882 384.887C171.845 389.666 144.994 394.217 142.264 394.899C138.623 395.81 137.03 395.127 137.03 392.624C137.03 390.803 137.258 389.211 137.713 388.983C141.809 387.845 254.218 373.737 259.907 373.737C265.596 373.965 266.278 374.192 262.182 374.875ZM468.343 401.498C466.75 409.463 463.337 413.786 460.834 411.055C460.151 410.373 460.606 408.325 461.971 406.732C463.792 404.684 464.019 401.271 462.654 396.72C461.289 391.941 461.516 388.756 463.109 387.163C467.205 383.067 470.163 391.714 468.343 401.498Z" fill="currentColor"></path></svg>