<svg viewBox="0 0 18 18" height="24px" fill="#ffffff" width="24px" focusable="false" class="chakra-icon css-9d7mni" xmlns="http://www.w3.org/2000/svg"><path d="M15.0075 14.445C14.865 14.445 14.7225 14.3925 14.61 14.28L10.8975 10.5675C10.68 10.35 10.68 9.99 10.8975 9.7725C11.115 9.555 11.475 9.555 11.6925 9.7725L15.405 13.485C15.6225 13.7025 15.6225 14.0625 15.405 14.28C15.2925 14.3925 15.15 14.445 15.0075 14.445Z"></path><path d="M7.58258 13.8225C7.03508 13.8225 6.51008 13.605 6.12758 13.215L2.94758 10.035C2.14508 9.2325 2.14508 7.91999 2.94758 7.11749L8.25008 1.81501C9.05258 1.01251 10.3651 1.01251 11.1676 1.81501L14.3476 4.995C14.7376 5.385 14.9551 5.9025 14.9551 6.45C14.9551 6.9975 14.7376 7.52251 14.3476 7.90501L9.04508 13.2075C8.65508 13.6125 8.13758 13.8225 7.58258 13.8225ZM9.70509 2.34C9.46509 2.34 9.22508 2.42999 9.04508 2.61749L3.74259 7.92C3.37509 8.2875 3.37509 8.87999 3.74259 9.24749L6.92258 12.4275C7.27508 12.78 7.89008 12.78 8.25008 12.4275L13.5526 7.125C13.7326 6.945 13.8301 6.7125 13.8301 6.465C13.8301 6.2175 13.7326 5.97749 13.5526 5.80499L10.3726 2.625C10.1851 2.43 9.94509 2.34 9.70509 2.34Z"></path><path d="M6 16.3125H1.5C1.1925 16.3125 0.9375 16.0575 0.9375 15.75C0.9375 15.4425 1.1925 15.1875 1.5 15.1875H6C6.3075 15.1875 6.5625 15.4425 6.5625 15.75C6.5625 16.0575 6.3075 16.3125 6 16.3125Z"></path><path d="M10.2225 11.8049C10.08 11.8049 9.93751 11.7524 9.82501 11.6399L4.5225 6.33746C4.305 6.11996 4.305 5.75996 4.5225 5.54246C4.74 5.32496 5.1 5.32496 5.3175 5.54246L10.62 10.8449C10.8375 11.0624 10.8375 11.4224 10.62 11.6399C10.515 11.7524 10.365 11.8049 10.2225 11.8049Z"></path></svg>