<svg viewBox="0 0 19 18" height="24px" fill="#ffffff" width="24px" focusable="false" class="chakra-icon css-1s8edty" xmlns="http://www.w3.org/2000/svg"><path d="M10.55 13.065H8.6675C7.4375 13.065 6.44 12.03 6.44 10.755C6.44 10.4475 6.695 10.1925 7.0025 10.1925C7.31 10.1925 7.565 10.4475 7.565 10.755C7.565 11.4075 8.06 11.94 8.6675 11.94H10.55C11.0375 11.94 11.4425 11.505 11.4425 10.98C11.4425 10.3275 11.21 10.2 10.8275 10.065L7.805 9C7.22 8.7975 6.4325 8.3625 6.4325 7.02C6.4325 5.865 7.34 4.935 8.45 4.935H10.3325C11.5625 4.935 12.56 5.97 12.56 7.245C12.56 7.5525 12.305 7.8075 11.9975 7.8075C11.69 7.8075 11.435 7.5525 11.435 7.245C11.435 6.5925 10.94 6.06 10.3325 6.06H8.45C7.9625 6.06 7.5575 6.495 7.5575 7.02C7.5575 7.6725 7.78999 7.8 8.17249 7.935L11.195 9C11.78 9.2025 12.5675 9.6375 12.5675 10.98C12.56 12.1275 11.66 13.065 10.55 13.065Z"></path><path d="M9.5 14.0625C9.1925 14.0625 8.9375 13.8075 8.9375 13.5V4.5C8.9375 4.1925 9.1925 3.9375 9.5 3.9375C9.8075 3.9375 10.0625 4.1925 10.0625 4.5V13.5C10.0625 13.8075 9.8075 14.0625 9.5 14.0625Z"></path><path d="M9.5 17.0625C5.0525 17.0625 1.4375 13.4475 1.4375 9C1.4375 4.5525 5.0525 0.9375 9.5 0.9375C13.9475 0.9375 17.5625 4.5525 17.5625 9C17.5625 13.4475 13.9475 17.0625 9.5 17.0625ZM9.5 2.0625C5.675 2.0625 2.5625 5.175 2.5625 9C2.5625 12.825 5.675 15.9375 9.5 15.9375C13.325 15.9375 16.4375 12.825 16.4375 9C16.4375 5.175 13.325 2.0625 9.5 2.0625Z"></path></svg>