<svg viewBox="0 0 19 18" height="24px" fill="#ffffff" width="24px" focusable="false" class="chakra-icon css-1s8edty" xmlns="http://www.w3.org/2000/svg"><path d="M13.9997 5.93251C13.9772 5.93251 13.9622 5.93251 13.9397 5.93251H13.9022C12.4847 5.88751 11.4272 4.79251 11.4272 3.44251C11.4272 2.06251 12.5522 0.945007 13.9247 0.945007C15.2972 0.945007 16.4222 2.07001 16.4222 3.44251C16.4147 4.80001 15.3572 5.89501 14.0072 5.94001C14.0072 5.93251 14.0072 5.93251 13.9997 5.93251ZM13.9247 2.06251C13.1672 2.06251 12.5522 2.67751 12.5522 3.43501C12.5522 4.17751 13.1297 4.77751 13.8722 4.80751C13.8797 4.80001 13.9397 4.80001 14.0072 4.80751C14.7347 4.77001 15.2972 4.17001 15.3047 3.43501C15.3047 2.67751 14.6897 2.06251 13.9247 2.06251Z"></path><path d="M14.0074 11.46C13.7149 11.46 13.4224 11.4375 13.1299 11.385C12.8224 11.3325 12.6199 11.04 12.6724 10.7325C12.7249 10.425 13.0174 10.2225 13.3249 10.275C14.2474 10.4325 15.2224 10.26 15.8749 9.825C16.2274 9.5925 16.4149 9.29999 16.4149 9.00749C16.4149 8.71499 16.2199 8.42999 15.8749 8.19749C15.2224 7.76249 14.2324 7.58999 13.3024 7.75499C12.9949 7.81499 12.7024 7.60499 12.6499 7.29749C12.5974 6.98999 12.7999 6.69749 13.1074 6.64499C14.3299 6.42749 15.5974 6.65998 16.4974 7.25998C17.1574 7.70248 17.5399 8.33249 17.5399 9.00749C17.5399 9.67499 17.1649 10.3125 16.4974 10.7625C15.8149 11.2125 14.9299 11.46 14.0074 11.46Z"></path><path d="M4.97736 5.9325C4.96986 5.9325 4.96236 5.9325 4.96236 5.9325C3.61236 5.8875 2.55486 4.7925 2.54736 3.4425C2.54736 2.0625 3.67236 0.9375 5.04486 0.9375C6.41736 0.9375 7.54236 2.0625 7.54236 3.435C7.54236 4.7925 6.48486 5.8875 5.13486 5.9325L4.97736 5.37L5.02986 5.9325C5.01486 5.9325 4.99236 5.9325 4.97736 5.9325ZM5.05236 4.8075C5.09736 4.8075 5.13486 4.8075 5.17986 4.815C5.84736 4.785 6.43236 4.185 6.43236 3.4425C6.43236 2.685 5.81736 2.07 5.05986 2.07C4.30237 2.07 3.68736 2.685 3.68736 3.4425C3.68736 4.1775 4.25736 4.77 4.98486 4.815C4.99236 4.8075 5.02236 4.8075 5.05236 4.8075Z"></path><path d="M4.97 11.46C4.0475 11.46 3.1625 11.2125 2.48 10.7625C1.82 10.32 1.4375 9.68249 1.4375 9.00749C1.4375 8.33999 1.82 7.70248 2.48 7.25998C3.38 6.65998 4.6475 6.42749 5.87 6.64499C6.1775 6.69749 6.38 6.98999 6.3275 7.29749C6.275 7.60499 5.9825 7.81499 5.675 7.75499C4.745 7.58999 3.7625 7.76249 3.1025 8.19749C2.75 8.42999 2.5625 8.71499 2.5625 9.00749C2.5625 9.29999 2.7575 9.5925 3.1025 9.825C3.755 10.26 4.73 10.4325 5.6525 10.275C5.96 10.2225 6.2525 10.4325 6.305 10.7325C6.3575 11.04 6.155 11.3325 5.8475 11.385C5.555 11.4375 5.2625 11.46 4.97 11.46Z"></path><path d="M9.49975 11.535C9.47725 11.535 9.46224 11.535 9.43974 11.535H9.40225C7.98475 11.49 6.92725 10.395 6.92725 9.04499C6.92725 7.66499 8.05225 6.54749 9.42475 6.54749C10.7972 6.54749 11.9222 7.67249 11.9222 9.04499C11.9147 10.4025 10.8572 11.4975 9.50725 11.5425C9.50725 11.535 9.50725 11.535 9.49975 11.535ZM9.42475 7.66499C8.66725 7.66499 8.05225 8.27999 8.05225 9.03749C8.05225 9.77999 8.62975 10.38 9.37225 10.41C9.37975 10.4025 9.43975 10.4025 9.50725 10.41C10.2347 10.3725 10.7972 9.77249 10.8047 9.03749C10.8047 8.28749 10.1897 7.66499 9.42475 7.66499Z"></path><path d="M9.49972 17.07C8.59972 17.07 7.69972 16.8375 7.00222 16.365C6.34222 15.9225 5.95972 15.2925 5.95972 14.6175C5.95972 13.95 6.33472 13.305 7.00222 12.8625C8.40472 11.9325 10.6022 11.9325 11.9972 12.8625C12.6572 13.305 13.0397 13.935 13.0397 14.61C13.0397 15.2775 12.6647 15.9225 11.9972 16.365C11.2997 16.83 10.3997 17.07 9.49972 17.07ZM7.62472 13.8075C7.27222 14.04 7.08472 14.3325 7.08472 14.625C7.08472 14.9175 7.27972 15.2025 7.62472 15.435C8.63722 16.1175 10.3547 16.1175 11.3672 15.435C11.7197 15.2025 11.9072 14.91 11.9072 14.6175C11.9072 14.325 11.7122 14.04 11.3672 13.8075C10.3622 13.125 8.64472 13.1325 7.62472 13.8075Z"></path></svg>