<svg 
  viewBox="0 0 19 19" 
  focusable="false" 
  xmlns="http://www.w3.org/2000/svg" 
  style="width: 8px; height: 8px;">
  <path d="M12.4107 16.832H12.3132C8.98322 16.832 7.37822 15.5195 7.10072 12.5795C7.07072 12.272 7.29572 11.9945 7.61072 11.9645C7.91072 11.9345 8.19572 12.167 8.22572 12.4745C8.44322 14.8295 9.55322 15.707 12.3207 15.707H12.4182C15.4707 15.707 16.5507 14.627 16.5507 11.5745V6.6845C16.5507 3.632 15.4707 2.552 12.4182 2.552H12.3207C9.53822 2.552 8.42822 3.4445 8.22572 5.8445C8.18822 6.152 7.92572 6.3845 7.61072 6.3545C7.29572 6.332 7.07072 6.0545 7.09322 5.747C7.34822 2.762 8.96072 1.427 12.3132 1.427H12.4107C16.0932 1.427 17.6682 3.002 17.6682 6.6845V11.5745C17.6682 15.257 16.0932 16.832 12.4107 16.832Z" fill="#EC594C"></path>
  <path d="M12.2307 9.69202H3.69568C3.38818 9.69202 3.13318 9.43702 3.13318 9.12952C3.13318 8.82202 3.38818 8.56702 3.69568 8.56702H12.2307C12.5382 8.56702 12.7932 8.82202 12.7932 9.12952C12.7932 9.43702 12.5382 9.69202 12.2307 9.69202Z" fill="#EC594C"></path>
  <path d="M5.36817 12.2045C5.22567 12.2045 5.08317 12.152 4.97067 12.0395L2.45817 9.52702C2.24067 9.30952 2.24067 8.94952 2.45817 8.73202L4.97067 6.21952C5.18817 6.00202 5.54817 6.00202 5.76567 6.21952C5.98317 6.43702 5.98317 6.79702 5.76567 7.01452L3.65067 9.12952L5.76567 11.2445C5.98317 11.462 5.98317 11.822 5.76567 12.0395C5.66067 12.152 5.51067 12.2045 5.36817 12.2045Z" fill="#EC594C"></path>
</svg>